<?xml version="1.0" standalone="no"?><!DOCTYPE svg PUBLIC "-//W3C//DTD SVG 1.1//EN" "http://www.w3.org/Graphics/SVG/1.1/DTD/svg11.dtd"><svg t="1576246564748" class="icon" viewBox="0 0 1024 1024" version="1.1" xmlns="http://www.w3.org/2000/svg" p-id="3093" xmlns:xlink="http://www.w3.org/1999/xlink" width="200" height="200"><defs><style type="text/css"></style></defs><path d="M353.2 493.7c-88.2 0-160-71.8-160-160v-40c0-88.2 71.8-160 160-160s160 71.8 160 160v40c0 88.3-71.8 160-160 160z m0-320c-31.9 0-62 12.5-84.7 35.3-22.7 22.7-35.3 52.8-35.3 84.7v40c0 31.9 12.5 62 35.3 84.7s52.8 35.3 84.7 35.3 62-12.5 84.7-35.3 35.3-52.8 35.3-84.7v-40c0-31.9-12.5-62-35.3-84.7-22.7-22.7-52.8-35.3-84.7-35.3zM791.2 573H632.4V283.8c0-38.8 10.7-75.7 30.2-103.7 21-30.3 49.6-47 80.5-47h48.1c11 0 20 9 20 20s-9 20-20 20h-48.1c-38.4 0-70.8 50.7-70.8 110.7V533h118.8c11 0 20 9 20 20s-8.8 20-19.9 20z" fill="#FF5B1A" p-id="3094"></path><path d="M352.8 890.3c-11 0-20-9-20-20v-386c0-11 9-20 20-20s20 9 20 20v386c0 11-9 20-20 20zM791.2 890.3c-11 0-20-9-20-20V153.9c0-11 9-20 20-20s20 9 20 20v716.4c0 11-9 20-20 20z" fill="#FF5B1A" p-id="3095"></path></svg>